<svg width="180" height="99" viewBox="0 0 180 99" fill="none" xmlns="http://www.w3.org/2000/svg">
<path d="M7.08984 83.0439C6.72852 83.0439 6.46484 83 6.29883 82.9121C6.13281 82.8145 6.0498 82.668 6.0498 82.4727V66.7549H1.04004C0.854492 66.7549 0.722656 66.6914 0.644531 66.5645C0.566406 66.4375 0.527344 66.2422 0.527344 65.9785V65.5537C0.527344 65.2803 0.566406 65.085 0.644531 64.9678C0.722656 64.8408 0.854492 64.7773 1.04004 64.7773H13.2568C13.4424 64.7773 13.5742 64.8408 13.6523 64.9678C13.7305 65.085 13.7695 65.2803 13.7695 65.5537V65.9785C13.7695 66.2422 13.7305 66.4375 13.6523 66.5645C13.5742 66.6914 13.4424 66.7549 13.2568 66.7549H8.34961V82.4727C8.34961 82.8535 7.99805 83.0439 7.29492 83.0439H7.08984ZM17.7393 83.0439C17.0459 83.0439 16.6992 82.8535 16.6992 82.4727V63.9863C16.6992 63.6055 17.0459 63.415 17.7393 63.415H17.8418C18.5449 63.415 18.8965 63.6055 18.8965 63.9863V71.0176C19.4043 70.5 20 70.0752 20.6836 69.7432C21.3672 69.4014 22.0947 69.2305 22.8662 69.2305C23.96 69.2305 24.9219 69.5381 25.752 70.1533C26.5918 70.7686 27.0117 71.8623 27.0117 73.4346V82.4727C27.0117 82.8535 26.665 83.0439 25.9717 83.0439H25.8691C25.166 83.0439 24.8145 82.8535 24.8145 82.4727V73.6543C24.8145 72.8633 24.5898 72.2432 24.1406 71.7939C23.6914 71.3447 23.0322 71.1201 22.1631 71.1201C21.5869 71.1201 21.0547 71.2568 20.5664 71.5303C20.0879 71.8037 19.6875 72.1016 19.3652 72.4238C19.0527 72.7363 18.8965 72.9121 18.8965 72.9512V82.4727C18.8965 82.8535 18.5449 83.0439 17.8418 83.0439H17.7393ZM36.5039 83.1465C34.541 83.1465 33.042 82.5605 32.0068 81.3887C30.9814 80.207 30.4688 78.4932 30.4688 76.2471C30.4688 74.001 30.9912 72.2725 32.0361 71.0615C33.0811 69.8408 34.5703 69.2305 36.5039 69.2305C38.418 69.2305 39.8828 69.8359 40.8984 71.0469C41.9141 72.248 42.4219 73.9814 42.4219 76.2471C42.4219 78.5029 41.9189 80.2168 40.9131 81.3887C39.917 82.5605 38.4473 83.1465 36.5039 83.1465ZM36.4307 81.2715C37.7002 81.2715 38.6377 80.8613 39.2432 80.041C39.8486 79.2109 40.1514 77.9316 40.1514 76.2031C40.1514 74.4648 39.8486 73.1807 39.2432 72.3506C38.6377 71.5205 37.7002 71.1055 36.4307 71.1055C35.1709 71.1055 34.2432 71.5205 33.6475 72.3506C33.0518 73.1709 32.7539 74.4551 32.7539 76.2031C32.7539 77.9414 33.0469 79.2207 33.6328 80.041C34.2285 80.8613 35.1611 81.2715 36.4307 81.2715ZM59.8975 69.2305C60.9814 69.2305 61.9336 69.5381 62.7539 70.1533C63.5742 70.7686 63.9844 71.8623 63.9844 73.4346V82.4727C63.9844 82.668 63.9014 82.8145 63.7354 82.9121C63.5693 83 63.3057 83.0439 62.9443 83.0439H62.8564C62.4854 83.0439 62.2168 83 62.0508 82.9121C61.8848 82.8145 61.8018 82.668 61.8018 82.4727V73.6543C61.8018 72.8633 61.5869 72.2432 61.1572 71.7939C60.7373 71.3447 60.1172 71.1201 59.2969 71.1201C58.6133 71.1201 57.9932 71.3203 57.4365 71.7207C56.8896 72.1113 56.4453 72.5215 56.1035 72.9512C56.123 73.1855 56.1328 73.3613 56.1328 73.4785V82.4727C56.1328 82.8535 55.7812 83.0439 55.0781 83.0439H54.9756C54.2822 83.0439 53.9355 82.8535 53.9355 82.4727V73.6543C53.9355 72.8633 53.7207 72.2432 53.291 71.7939C52.8711 71.3447 52.251 71.1201 51.4307 71.1201C50.8643 71.1201 50.3467 71.2568 49.8779 71.5303C49.4092 71.7939 49.0186 72.082 48.7061 72.3945C48.4033 72.707 48.252 72.8828 48.252 72.9219V82.4727C48.252 82.668 48.1689 82.8145 48.0029 82.9121C47.8467 83 47.5879 83.0439 47.2266 83.0439H47.1094C46.748 83.0439 46.4844 83 46.3184 82.9121C46.1621 82.8145 46.084 82.668 46.084 82.4727V73.332C46.084 72.1992 46.0303 71.3838 45.9229 70.8857C45.8154 70.3779 45.7617 70.0996 45.7617 70.0508C45.7617 69.8359 45.9229 69.6846 46.2451 69.5967C46.5771 69.499 46.8848 69.4502 47.168 69.4502C47.4121 69.4502 47.5928 69.582 47.71 69.8457C47.8271 70.1094 47.9102 70.3779 47.959 70.6514C48.0176 70.9248 48.0566 71.1006 48.0762 71.1787C48.5547 70.6221 49.1406 70.1582 49.834 69.7871C50.5273 69.416 51.2598 69.2305 52.0312 69.2305C52.8223 69.2305 53.5596 69.3916 54.2432 69.7139C54.9268 70.0264 55.4297 70.583 55.752 71.3838C56.2891 70.749 56.9189 70.2314 57.6416 69.8311C58.3643 69.4307 59.1162 69.2305 59.8975 69.2305ZM71.6748 83.1465C70.3467 83.1465 69.2725 82.8193 68.4521 82.165C67.6318 81.5107 67.2217 80.5391 67.2217 79.25C67.2217 77.8926 67.6367 76.8721 68.4668 76.1885C69.2969 75.4951 70.3076 75.0508 71.499 74.8555C72.7002 74.6504 74.1553 74.5332 75.8643 74.5039V73.2734C75.8643 72.6191 75.6396 72.0967 75.1904 71.7061C74.751 71.3057 74.0234 71.1055 73.0078 71.1055C72.2363 71.1055 71.5576 71.1982 70.9717 71.3838C70.3955 71.5596 69.8535 71.7744 69.3457 72.0283C69.1309 72.1357 68.999 72.1895 68.9502 72.1895C68.833 72.1895 68.7012 72.1064 68.5547 71.9404C68.418 71.7646 68.2959 71.5693 68.1885 71.3545C68.0908 71.1396 68.042 70.9834 68.042 70.8857C68.042 70.6611 68.2715 70.417 68.7305 70.1533C69.1992 69.8896 69.8096 69.6699 70.5615 69.4941C71.3135 69.3184 72.0996 69.2305 72.9199 69.2305C74.5508 69.2305 75.8154 69.5869 76.7139 70.2998C77.6123 71.0127 78.0615 72.0137 78.0615 73.3027V79.1475C78.0615 80.2803 78.1104 81.1006 78.208 81.6084C78.3154 82.1064 78.3691 82.3799 78.3691 82.4287C78.3691 82.6436 78.2031 82.7998 77.8711 82.8975C77.5488 82.9854 77.2461 83.0293 76.9629 83.0293C76.7285 83.0293 76.5527 82.8975 76.4355 82.6338C76.3281 82.3701 76.2207 81.9893 76.1133 81.4912L76.0547 81.1982C75.5176 81.7939 74.8828 82.2676 74.1504 82.6191C73.4277 82.9707 72.6025 83.1465 71.6748 83.1465ZM71.792 81.2568C72.6514 81.2568 73.3838 81.1006 73.9893 80.7881C74.5947 80.4756 75.2197 80.0312 75.8643 79.4551V76.3789C74.5752 76.3887 73.5156 76.4424 72.6855 76.54C71.8555 76.6377 71.1279 76.8867 70.5029 77.2871C69.8779 77.6777 69.5654 78.2881 69.5654 79.1182C69.5654 79.8115 69.751 80.3438 70.1221 80.7148C70.5029 81.0762 71.0596 81.2568 71.792 81.2568ZM85.21 83.249C84.4775 83.249 83.7939 83.1562 83.1592 82.9707C82.5244 82.7852 82.0166 82.5605 81.6357 82.2969C81.2646 82.0234 81.0791 81.7842 81.0791 81.5791C81.0791 81.4814 81.1279 81.3252 81.2256 81.1104C81.333 80.8955 81.4551 80.7051 81.5918 80.5391C81.7383 80.3633 81.8701 80.2754 81.9873 80.2754C82.0166 80.2754 82.1045 80.3242 82.251 80.4219C82.6416 80.6758 83.0518 80.8906 83.4814 81.0664C83.9209 81.2422 84.4434 81.3301 85.0488 81.3301C86.748 81.3301 87.5977 80.627 87.5977 79.2207C87.5977 78.8203 87.5146 78.4834 87.3486 78.21C87.1924 77.9365 86.9238 77.6973 86.543 77.4922C86.1719 77.2773 85.6592 77.0723 85.0049 76.877C84.0674 76.6035 83.335 76.291 82.8076 75.9395C82.29 75.5879 81.9238 75.1777 81.709 74.709C81.4941 74.2305 81.3867 73.6543 81.3867 72.9805C81.3867 72.2578 81.5674 71.6084 81.9287 71.0322C82.2998 70.4561 82.8125 70.0068 83.4668 69.6846C84.1309 69.3623 84.8779 69.2012 85.708 69.2012C86.2842 69.2012 86.8359 69.2549 87.3633 69.3623C87.9004 69.4697 88.3301 69.6113 88.6523 69.7871C88.9844 69.9531 89.1504 70.1289 89.1504 70.3145C89.1504 70.4512 89.1016 70.6367 89.0039 70.8711C88.916 71.0957 88.8037 71.2959 88.667 71.4717C88.5303 71.6377 88.4082 71.7207 88.3008 71.7207C88.2812 71.7207 88.1592 71.6621 87.9346 71.5449C87.71 71.418 87.4219 71.3057 87.0703 71.208C86.7285 71.1006 86.3477 71.0469 85.9277 71.0469C85.2637 71.0469 84.7119 71.1982 84.2725 71.501C83.8428 71.7939 83.6279 72.1895 83.6279 72.6875C83.6279 73.2734 83.7842 73.7422 84.0967 74.0938C84.4092 74.4453 84.9268 74.7334 85.6494 74.958C86.7627 75.2998 87.6123 75.6416 88.1982 75.9834C88.7842 76.3252 89.1992 76.7451 89.4434 77.2432C89.6973 77.7314 89.8242 78.376 89.8242 79.1768C89.8242 79.9385 89.6191 80.6318 89.209 81.2568C88.7988 81.8721 88.2422 82.3604 87.5391 82.7217C86.8359 83.0732 86.0596 83.249 85.21 83.249ZM100.488 83C100.215 83 100.015 82.9365 99.8877 82.8096C99.7607 82.6826 99.6973 82.4873 99.6973 82.2236V65.29C99.6973 64.8994 100.049 64.7041 100.752 64.7041H100.957C101.65 64.7041 101.997 64.8994 101.997 65.29V81.0225H109.16C109.346 81.0225 109.478 81.0859 109.556 81.2129C109.634 81.3301 109.673 81.5254 109.673 81.7988V82.2236C109.673 82.4873 109.634 82.6826 109.556 82.8096C109.478 82.9365 109.346 83 109.16 83H100.488ZM113.086 66.0957C112.393 66.0957 112.046 65.9053 112.046 65.5244V63.9863C112.046 63.6055 112.393 63.415 113.086 63.415H113.394C114.097 63.415 114.448 63.6055 114.448 63.9863V65.5244C114.448 65.9053 114.097 66.0957 113.394 66.0957H113.086ZM113.188 83.0439C112.495 83.0439 112.148 82.8535 112.148 82.4727V69.9043C112.148 69.5234 112.495 69.333 113.188 69.333H113.291C113.994 69.333 114.346 69.5234 114.346 69.9043V82.4727C114.346 82.8535 113.994 83.0439 113.291 83.0439H113.188ZM119.985 83.0439C119.614 83.0439 119.346 83 119.18 82.9121C119.014 82.8145 118.931 82.668 118.931 82.4727V73.332C118.931 72.1992 118.877 71.3838 118.77 70.8857C118.662 70.3779 118.608 70.0996 118.608 70.0508C118.608 69.8359 118.77 69.6846 119.092 69.5967C119.424 69.499 119.736 69.4502 120.029 69.4502C120.273 69.4502 120.454 69.582 120.571 69.8457C120.688 70.1094 120.771 70.3779 120.82 70.6514C120.879 70.9248 120.918 71.1006 120.938 71.1787C121.484 70.5635 122.114 70.085 122.827 69.7432C123.55 69.4014 124.277 69.2305 125.01 69.2305C126.338 69.2305 127.373 69.6064 128.115 70.3584C128.867 71.1006 129.243 72.126 129.243 73.4346V82.4727C129.243 82.668 129.16 82.8145 128.994 82.9121C128.828 83 128.564 83.0439 128.203 83.0439H128.086C127.734 83.0439 127.476 83 127.31 82.9121C127.144 82.8145 127.061 82.668 127.061 82.4727V73.6543C127.061 72.8535 126.826 72.2334 126.357 71.7939C125.898 71.3447 125.249 71.1201 124.409 71.1201C123.823 71.1201 123.232 71.2861 122.637 71.6182C122.051 71.9404 121.543 72.3848 121.113 72.9512V82.4727C121.113 82.668 121.03 82.8145 120.864 82.9121C120.698 83 120.439 83.0439 120.088 83.0439H119.985ZM136.919 83.1465C135.591 83.1465 134.517 82.8193 133.696 82.165C132.876 81.5107 132.466 80.5391 132.466 79.25C132.466 77.8926 132.881 76.8721 133.711 76.1885C134.541 75.4951 135.552 75.0508 136.743 74.8555C137.944 74.6504 139.399 74.5332 141.108 74.5039V73.2734C141.108 72.6191 140.884 72.0967 140.435 71.7061C139.995 71.3057 139.268 71.1055 138.252 71.1055C137.48 71.1055 136.802 71.1982 136.216 71.3838C135.64 71.5596 135.098 71.7744 134.59 72.0283C134.375 72.1357 134.243 72.1895 134.194 72.1895C134.077 72.1895 133.945 72.1064 133.799 71.9404C133.662 71.7646 133.54 71.5693 133.433 71.3545C133.335 71.1396 133.286 70.9834 133.286 70.8857C133.286 70.6611 133.516 70.417 133.975 70.1533C134.443 69.8896 135.054 69.6699 135.806 69.4941C136.558 69.3184 137.344 69.2305 138.164 69.2305C139.795 69.2305 141.06 69.5869 141.958 70.2998C142.856 71.0127 143.306 72.0137 143.306 73.3027V79.1475C143.306 80.2803 143.354 81.1006 143.452 81.6084C143.56 82.1064 143.613 82.3799 143.613 82.4287C143.613 82.6436 143.447 82.7998 143.115 82.8975C142.793 82.9854 142.49 83.0293 142.207 83.0293C141.973 83.0293 141.797 82.8975 141.68 82.6338C141.572 82.3701 141.465 81.9893 141.357 81.4912L141.299 81.1982C140.762 81.7939 140.127 82.2676 139.395 82.6191C138.672 82.9707 137.847 83.1465 136.919 83.1465ZM137.036 81.2568C137.896 81.2568 138.628 81.1006 139.233 80.7881C139.839 80.4756 140.464 80.0312 141.108 79.4551V76.3789C139.819 76.3887 138.76 76.4424 137.93 76.54C137.1 76.6377 136.372 76.8867 135.747 77.2871C135.122 77.6777 134.81 78.2881 134.81 79.1182C134.81 79.8115 134.995 80.3438 135.366 80.7148C135.747 81.0762 136.304 81.2568 137.036 81.2568ZM148.799 83.0439C148.428 83.0439 148.159 83 147.993 82.9121C147.827 82.8145 147.744 82.668 147.744 82.4727V73.332C147.744 72.1992 147.69 71.3838 147.583 70.8857C147.476 70.3779 147.422 70.0996 147.422 70.0508C147.422 69.8359 147.583 69.6846 147.905 69.5967C148.237 69.499 148.55 69.4502 148.843 69.4502C149.077 69.4502 149.253 69.5771 149.37 69.8311C149.487 70.0752 149.59 70.4219 149.678 70.8711L149.751 71.1787C150.679 69.8799 151.685 69.2305 152.769 69.2305C153.267 69.2305 153.643 69.3232 153.896 69.5088C154.15 69.6846 154.277 69.9238 154.277 70.2266C154.277 70.5195 154.224 70.832 154.116 71.1641C154.019 71.4863 153.901 71.6475 153.765 71.6475C153.696 71.6475 153.574 71.6182 153.398 71.5596C153.242 71.4912 153.086 71.4424 152.93 71.4131C152.773 71.374 152.573 71.3545 152.329 71.3545C151.929 71.3545 151.548 71.4717 151.187 71.7061C150.835 71.9404 150.537 72.1992 150.293 72.4824C150.049 72.7656 149.927 72.9219 149.927 72.9512V82.4727C149.927 82.668 149.844 82.8145 149.678 82.9121C149.512 83 149.253 83.0439 148.901 83.0439H148.799ZM162.744 83.1465C160.586 83.1465 158.979 82.585 157.925 81.4619C156.88 80.3291 156.357 78.6006 156.357 76.2764C156.357 73.9717 156.87 72.2236 157.896 71.0322C158.921 69.8311 160.43 69.2305 162.422 69.2305C164.199 69.2305 165.537 69.8066 166.436 70.959C167.344 72.1113 167.798 73.8008 167.798 76.0273C167.798 76.125 167.744 76.2617 167.637 76.4375C167.539 76.6035 167.417 76.7549 167.271 76.8916C167.134 77.0186 167.017 77.082 166.919 77.082H158.701C158.809 78.5371 159.18 79.6016 159.814 80.2754C160.459 80.9395 161.426 81.2715 162.715 81.2715C163.438 81.2715 164.058 81.1836 164.575 81.0078C165.103 80.832 165.61 80.6172 166.099 80.3633C166.147 80.3438 166.221 80.3096 166.318 80.2607C166.416 80.2119 166.484 80.1875 166.523 80.1875C166.631 80.1875 166.753 80.2754 166.89 80.4512C167.036 80.6172 167.158 80.8076 167.256 81.0225C167.363 81.2275 167.417 81.3789 167.417 81.4766C167.417 81.6914 167.202 81.9307 166.772 82.1943C166.343 82.458 165.767 82.6826 165.044 82.8682C164.331 83.0537 163.564 83.1465 162.744 83.1465ZM165.469 75.207C165.469 72.4727 164.429 71.1055 162.349 71.1055C160.112 71.1055 158.896 72.4727 158.701 75.207H165.469ZM174.038 83.249C173.306 83.249 172.622 83.1562 171.987 82.9707C171.353 82.7852 170.845 82.5605 170.464 82.2969C170.093 82.0234 169.907 81.7842 169.907 81.5791C169.907 81.4814 169.956 81.3252 170.054 81.1104C170.161 80.8955 170.283 80.7051 170.42 80.5391C170.566 80.3633 170.698 80.2754 170.815 80.2754C170.845 80.2754 170.933 80.3242 171.079 80.4219C171.47 80.6758 171.88 80.8906 172.31 81.0664C172.749 81.2422 173.271 81.3301 173.877 81.3301C175.576 81.3301 176.426 80.627 176.426 79.2207C176.426 78.8203 176.343 78.4834 176.177 78.21C176.021 77.9365 175.752 77.6973 175.371 77.4922C175 77.2773 174.487 77.0723 173.833 76.877C172.896 76.6035 172.163 76.291 171.636 75.9395C171.118 75.5879 170.752 75.1777 170.537 74.709C170.322 74.2305 170.215 73.6543 170.215 72.9805C170.215 72.2578 170.396 71.6084 170.757 71.0322C171.128 70.4561 171.641 70.0068 172.295 69.6846C172.959 69.3623 173.706 69.2012 174.536 69.2012C175.112 69.2012 175.664 69.2549 176.191 69.3623C176.729 69.4697 177.158 69.6113 177.48 69.7871C177.812 69.9531 177.979 70.1289 177.979 70.3145C177.979 70.4512 177.93 70.6367 177.832 70.8711C177.744 71.0957 177.632 71.2959 177.495 71.4717C177.358 71.6377 177.236 71.7207 177.129 71.7207C177.109 71.7207 176.987 71.6621 176.763 71.5449C176.538 71.418 176.25 71.3057 175.898 71.208C175.557 71.1006 175.176 71.0469 174.756 71.0469C174.092 71.0469 173.54 71.1982 173.101 71.501C172.671 71.7939 172.456 72.1895 172.456 72.6875C172.456 73.2734 172.612 73.7422 172.925 74.0938C173.237 74.4453 173.755 74.7334 174.478 74.958C175.591 75.2998 176.44 75.6416 177.026 75.9834C177.612 76.3252 178.027 76.7451 178.271 77.2432C178.525 77.7314 178.652 78.376 178.652 79.1768C178.652 79.9385 178.447 80.6318 178.037 81.2568C177.627 81.8721 177.07 82.3604 176.367 82.7217C175.664 83.0732 174.888 83.249 174.038 83.249Z" fill="white"/>
<path d="M4.54688 55C3.96875 55 3.54688 54.8672 3.28125 54.6016C3.01562 54.3359 2.88281 53.9141 2.88281 53.3359V27.4844C2.88281 26.9062 3.01562 26.4922 3.28125 26.2422C3.54688 25.9766 3.96875 25.8438 4.54688 25.8438H13.875C16.7344 25.8438 19.1562 26.4062 21.1406 27.5312C23.1406 28.6406 24.6484 30.2812 25.6641 32.4531C26.6953 34.625 27.2109 37.2734 27.2109 40.3984C27.2109 43.5391 26.6953 46.1953 25.6641 48.3672C24.6484 50.5391 23.1406 52.1875 21.1406 53.3125C19.1562 54.4375 16.7344 55 13.875 55H4.54688ZM13.875 49.5391C16.0938 49.5391 17.7734 48.7656 18.9141 47.2188C20.0547 45.6562 20.625 43.3828 20.625 40.3984C20.625 37.4297 20.0547 35.1719 18.9141 33.625C17.7734 32.0625 16.0938 31.2812 13.875 31.2812H9.35156V49.5391H13.875ZM33.5156 55C32.9375 55 32.5156 54.8672 32.25 54.6016C31.9844 54.3359 31.8516 53.9141 31.8516 53.3359V27.4844C31.8516 26.9062 31.9844 26.4922 32.25 26.2422C32.5156 25.9766 32.9375 25.8438 33.5156 25.8438H48.7734C49.2109 25.8438 49.5234 26.0078 49.7109 26.3359C49.9141 26.6641 50.0156 27.1953 50.0156 27.9297V29.1953C50.0156 29.9297 49.9141 30.4609 49.7109 30.7891C49.5234 31.1172 49.2109 31.2812 48.7734 31.2812H38.2734V37.3281H47.6484C48.0859 37.3281 48.3984 37.4922 48.5859 37.8203C48.7891 38.1484 48.8906 38.6797 48.8906 39.4141V40.7031C48.8906 41.4375 48.7891 41.9688 48.5859 42.2969C48.3984 42.625 48.0859 42.7891 47.6484 42.7891H38.2734V49.5391H48.7969C49.2344 49.5391 49.5469 49.7031 49.7344 50.0312C49.9375 50.3594 50.0391 50.8828 50.0391 51.6016V52.9141C50.0391 53.6484 49.9375 54.1797 49.7344 54.5078C49.5469 54.8359 49.2344 55 48.7969 55H33.5156ZM63.4688 55.0703C62.7969 55.0703 62.2656 55.0078 61.875 54.8828C61.4844 54.7422 61.2422 54.5156 61.1484 54.2031L52.1484 27.4141C52.0234 27.0391 51.9609 26.7891 51.9609 26.6641C51.9609 26.0391 52.8125 25.7266 54.5156 25.7266H55.875C57.2656 25.7266 58.0859 26.1406 58.3359 26.9688L63.9609 44.9922L64.4297 46.4453H64.5938L65.0625 44.9922L70.8281 26.9688C71.1094 26.1406 71.9375 25.7266 73.3125 25.7266H74.5781C76.25 25.7266 77.0859 26.0391 77.0859 26.6641C77.0859 26.9453 77.0391 27.1953 76.9453 27.4141L67.9453 54.2031C67.8516 54.5156 67.6016 54.7422 67.1953 54.8828C66.8047 55.0078 66.2812 55.0703 65.625 55.0703H63.4688Z" fill="white"/>
</svg>
